<svg id="visual" viewBox="0 0 960 540" width="960" height="540" xmlns="http://www.w3.org/2000/svg" xmlns:xlink="http://www.w3.org/1999/xlink" version="1.1"><rect x="0" y="0" width="960" height="540" fill="#001220"></rect><path d="M0 391L32 396.5C64 402 128 413 192 409.2C256 405.3 320 386.7 384 384C448 381.3 512 394.7 576 395.8C640 397 704 386 768 388C832 390 896 405 928 412.5L960 420L960 541L928 541C896 541 832 541 768 541C704 541 640 541 576 541C512 541 448 541 384 541C320 541 256 541 192 541C128 541 64 541 32 541L0 541Z" fill="#066e58"></path><path d="M0 436L32 433C64 430 128 424 192 423C256 422 320 426 384 431.7C448 437.3 512 444.7 576 448.8C640 453 704 454 768 449.5C832 445 896 435 928 430L960 425L960 541L928 541C896 541 832 541 768 541C704 541 640 541 576 541C512 541 448 541 384 541C320 541 256 541 192 541C128 541 64 541 32 541L0 541Z" fill="#047b61"></path><path d="M0 452L32 457C64 462 128 472 192 476.5C256 481 320 480 384 479.8C448 479.7 512 480.3 576 476.3C640 472.3 704 463.7 768 458.8C832 454 896 453 928 452.5L960 452L960 541L928 541C896 541 832 541 768 541C704 541 640 541 576 541C512 541 448 541 384 541C320 541 256 541 192 541C128 541 64 541 32 541L0 541Z" fill="#02876a"></path><path d="M0 504L32 501.3C64 498.7 128 493.3 192 493.5C256 493.7 320 499.3 384 499.2C448 499 512 493 576 492.5C640 492 704 497 768 496.8C832 496.7 896 491.3 928 488.7L960 486L960 541L928 541C896 541 832 541 768 541C704 541 640 541 576 541C512 541 448 541 384 541C320 541 256 541 192 541C128 541 64 541 32 541L0 541Z" fill="#009473"></path></svg>